<?xml version="1.0" encoding="UTF-8"?>
<!DOCTYPE svg PUBLIC "-//W3C//DTD SVG 1.1//EN" "http://www.w3.org/Graphics/SVG/1.1/DTD/svg11.dtd">
<!-- Creator: CorelDRAW X6 -->
<svg xmlns="http://www.w3.org/2000/svg" xml:space="preserve" width="0.71in" height="0.71in" version="1.1" style="shape-rendering:geometricPrecision; text-rendering:geometricPrecision; image-rendering:optimizeQuality; fill-rule:evenodd; clip-rule:evenodd"
viewBox="0 0 710 710"
 xmlns:xlink="http://www.w3.org/1999/xlink">
 <defs>
  <style type="text/css">
   <![CDATA[
    .str0 {stroke:#373435;stroke-width:20.8346}
    .fil0 {fill:none}
    .fil2 {fill:#FEFEFE}
    .fil1 {fill:#373435;fill-rule:nonzero}
    .fil3 {fill:url(#id0)}
   ]]>
  </style>
  <linearGradient id="id0" gradientUnits="userSpaceOnUse" x1="35.7874" y1="379.268" x2="664.969" y2="379.268">
   <stop offset="0" style="stop-color:#AE333F"/>
   <stop offset="1" style="stop-color:#F27074"/>
  </linearGradient>
 </defs>
 <g id="Layer_x0020_1">
  <metadata id="CorelCorpID_0Corel-Layer"/>
  <polygon class="fil0" points="0,710 710,710 710,0 0,0 "/>
  <path class="fil1" d="M165 436l38 0 0 3c0,16 2,28 5,35 3,7 9,10 17,10 8,0 14,-3 17,-9 3,-6 5,-16 5,-31 0,-15 -2,-25 -6,-30 -4,-5 -12,-7 -24,-7 -3,0 -5,0 -6,0 -2,0 -3,0 -5,0l0 -29 3 0c13,0 22,-2 27,-7 5,-4 7,-13 7,-25 0,-11 -1,-19 -4,-23 -3,-4 -8,-6 -15,-6 -7,0 -12,2 -15,7 -3,5 -5,13 -5,24l0 5 -38 0c0,-1 0,-2 0,-3 0,-1 0,-3 0,-5 0,-19 5,-33 15,-43 10,-10 25,-14 45,-14 18,0 32,5 42,15 10,10 15,24 15,42 0,12 -2,22 -7,30 -4,8 -11,13 -19,16 10,3 18,8 23,17 5,9 8,20 8,35 0,24 -5,42 -16,53 -11,12 -27,18 -48,18 -20,0 -36,-6 -45,-17 -10,-11 -15,-29 -15,-53 0,-1 0,-2 0,-4 0,-2 0,-3 0,-4zm188 2c0,17 2,29 5,35 3,6 8,10 16,10 8,0 13,-3 16,-8 3,-6 4,-18 4,-36 0,-18 -1,-30 -4,-36 -3,-6 -8,-8 -16,-8 -7,0 -13,3 -16,10 -3,6 -5,18 -5,34zm0 -62c3,-5 7,-9 13,-11 5,-2 11,-4 19,-4 17,0 29,6 38,17 8,11 12,29 12,53 0,30 -5,52 -14,64 -9,13 -25,19 -47,19 -12,0 -22,-2 -29,-6 -8,-4 -14,-10 -20,-19 -4,-7 -7,-16 -9,-30 -2,-13 -3,-32 -3,-58 0,-26 1,-45 2,-58 2,-13 4,-23 8,-30 5,-9 12,-16 21,-20 8,-4 19,-6 32,-6 17,0 30,4 40,12 9,8 14,20 14,34l0 3 -38 0 0 -2c0,-6 -1,-11 -4,-14 -3,-3 -7,-4 -13,-4 -8,0 -13,3 -16,10 -3,7 -5,19 -5,36 0,1 0,3 0,6 0,3 0,5 0,6zm187 43l0 -60c0,-17 -1,-29 -4,-34 -3,-5 -8,-8 -15,-8 -7,0 -13,3 -15,8 -3,5 -4,17 -4,35l0 21 0 60c0,18 1,29 4,34 3,5 8,8 16,8 7,0 13,-3 15,-8 3,-5 4,-17 4,-36l0 -21zm-80 -20c0,-26 1,-46 2,-58 2,-13 5,-22 8,-29 5,-9 12,-15 20,-19 8,-4 18,-6 30,-6 12,0 22,2 30,6 8,4 14,10 20,19 4,6 7,16 8,29 2,13 2,32 2,58 0,27 -1,47 -2,59 -2,13 -4,22 -8,29 -5,9 -12,16 -20,20 -8,4 -18,6 -31,6 -12,0 -23,-2 -31,-6 -8,-4 -15,-11 -20,-20 -4,-6 -6,-16 -8,-28 -2,-12 -2,-32 -2,-60z"/>
  <path class="fil2" d="M671 386c-43,29 -155,46 -307,48 -152,2 -301,-23 -322,-57l60 -25c-1,2 -1,4 -1,6 1,39 161,69 302,67 141,-2 218,-15 269,-38l0 0z"/>
  <path class="fil3" d="M665 390c-45,28 -164,49 -304,50 -179,2 -324,-27 -325,-66 0,-23 48,-43 123,-57l0 4c-39,12 -62,28 -62,44 1,39 136,69 302,67 115,-1 215,-18 265,-41l0 0z"/>
  <path class="fil0 str0" d="M588 196c16,-3 31,8 34,25 3,16 -8,31 -25,34 -16,3 -31,-8 -34,-25 -3,-16 8,-31 25,-34l0 0z"/>
 </g>
</svg>
