<?xml version="1.0" encoding="UTF-8"?>
<!DOCTYPE svg PUBLIC "-//W3C//DTD SVG 1.1//EN" "http://www.w3.org/Graphics/SVG/1.1/DTD/svg11.dtd">
<!-- Creator: CorelDRAW X6 -->
<svg xmlns="http://www.w3.org/2000/svg" xml:space="preserve" width="0.333in" height="0.333in" version="1.1" style="shape-rendering:geometricPrecision; text-rendering:geometricPrecision; image-rendering:optimizeQuality; fill-rule:evenodd; clip-rule:evenodd"
viewBox="0 0 333 333"
 xmlns:xlink="http://www.w3.org/1999/xlink">
 <defs>
  <style type="text/css">
   <![CDATA[
    .str0 {stroke:#FEFEFE;stroke-width:20.8346;stroke-linecap:round;stroke-linejoin:round}
    .fil0 {fill:none}
    .fil1 {fill:#FEFEFE;fill-rule:nonzero}
   ]]>
  </style>
 </defs>
 <g id="Layer_x0020_1">
  <metadata id="CorelCorpID_0Corel-Layer"/>
  <g id="_295963928">
   <rect class="fil0" width="333" height="333"/>
   <g>
    <g>
     <path class="fil0 str0" d="M260 208l0 -83c0,-7 -4,-14 -10,-18l-73 -42c-3,-2 -7,-3 -10,-3 -4,0 -7,1 -10,3l-73 42c-6,4 -10,11 -10,18l0 83c0,7 4,14 10,18l73 42c3,2 7,3 10,3 4,0 7,-1 10,-3l73 -42c6,-4 10,-11 10,-18l0 0z"/>
     <polyline class="fil0 str0" points="76,114 167,166 257,114 "/>
     <line class="fil0 str0" x1="167" y1="271" x2="167" y2= "166" />
    </g>
    <path class="fil1" d="M116 189l-13 -2c1,-4 3,-7 6,-10 3,-2 7,-3 13,-3 6,0 11,1 14,4 3,2 4,5 4,9 0,2 -1,4 -2,6 -1,2 -3,3 -5,5 2,0 3,1 4,2 2,1 3,2 4,4 1,2 1,4 1,6 0,3 -1,6 -2,8 -2,3 -4,5 -7,6 -3,1 -7,2 -11,2 -5,0 -8,-1 -11,-2 -3,-1 -5,-3 -6,-5 -2,-2 -3,-5 -4,-8l14 -2c1,3 1,5 3,6 1,1 3,2 4,2 2,0 3,-1 5,-2 1,-1 2,-3 2,-5 0,-2 -1,-4 -2,-5 -1,-1 -3,-2 -5,-2 -1,0 -3,0 -4,1l1 -10c1,0 1,0 2,0 2,0 3,-1 4,-2 1,-1 2,-3 2,-4 0,-2 0,-3 -1,-4 -1,-1 -2,-1 -4,-1 -2,0 -3,0 -4,1 -1,1 -2,3 -2,5z"/>
    <path class="fil1" d="M191 174l23 0c4,0 8,1 11,2 3,1 5,3 7,5 2,2 3,5 4,8 1,3 1,6 1,10 0,5 -1,9 -2,12 -1,3 -3,5 -5,7 -2,2 -4,3 -7,4 -3,1 -6,1 -9,1l-23 0 0 -50zm15 11l0 27 4 0c3,0 6,0 7,-1 1,-1 2,-2 3,-4 1,-2 1,-5 1,-9 0,-5 -1,-9 -3,-11 -2,-2 -5,-3 -9,-3l-4 0z"/>
   </g>
  </g>
 </g>
</svg>
