<svg width="144" height="114" viewBox="0 0 144 114" fill="none" xmlns="http://www.w3.org/2000/svg">
<g clip-path="url(#clip0)">
<path d="M21.6174 92.7375C20.5821 97.2752 16.9541 100.111 16.9541 100.111C16.9541 100.111 15.0048 95.5896 16.0401 91.0519C17.0755 86.5142 20.7034 83.6785 20.7034 83.6785C20.7034 83.6785 22.6527 88.1998 21.6174 92.7375Z" fill="#3F3D56"/>
<path d="M20.0472 91.7777C17.1474 95.075 16.823 100.109 16.823 100.109C16.823 100.109 21.2001 99.7961 24.0999 96.4988C26.9997 93.2015 27.3242 88.168 27.3242 88.168C27.3242 88.168 22.9471 88.4804 20.0472 91.7777Z" fill="#6C63FF"/>
<path d="M23.6836 98.7825H12.3407C11.0965 98.7825 10.0879 99.9433 10.0879 101.375V103.952C10.0879 105.383 11.0965 106.544 12.3407 106.544H23.6836C24.9278 106.544 25.9364 105.383 25.9364 103.952V101.375C25.9364 99.9433 24.9278 98.7825 23.6836 98.7825Z" fill="#6C63FF"/>
<g opacity="0.7">
<path opacity="0.7" d="M132.742 93.8242V91.0273H120.592V103.963C120.592 104.321 120.653 104.676 120.772 105.006C120.891 105.337 121.066 105.638 121.286 105.891C121.506 106.144 121.767 106.345 122.054 106.482C122.342 106.619 122.65 106.69 122.961 106.69H130.373C131.001 106.69 131.604 106.402 132.048 105.891C132.493 105.38 132.742 104.686 132.742 103.963V101.096C133.579 101.094 134.381 100.71 134.972 100.029C135.563 99.3469 135.895 98.4232 135.895 97.4601C135.895 96.497 135.563 95.5733 134.972 94.8916C134.381 94.21 133.579 93.8261 132.742 93.8242ZM132.742 99.6976V95.2226C133.258 95.2226 133.752 95.4584 134.117 95.878C134.482 96.2976 134.686 96.8667 134.686 97.4601C134.686 98.0535 134.482 98.6226 134.117 99.0422C133.752 99.4618 133.258 99.6976 132.742 99.6976Z" fill="url(#paint0_linear)"/>
</g>
<path d="M132.351 94.262C131.781 94.262 131.223 94.4567 130.749 94.8214C130.274 95.1862 129.905 95.7047 129.686 96.3113C129.468 96.9179 129.411 97.5854 129.522 98.2294C129.634 98.8733 129.908 99.4648 130.312 99.9291C130.715 100.393 131.229 100.71 131.789 100.838C132.348 100.966 132.928 100.9 133.455 100.649C133.982 100.397 134.433 99.972 134.75 99.4261C135.067 98.8801 135.236 98.2383 135.236 97.5817C135.236 96.7013 134.932 95.8569 134.391 95.2343C133.85 94.6117 133.116 94.262 132.351 94.262ZM132.351 99.6246C132 99.6246 131.657 99.5048 131.365 99.2803C131.073 99.0559 130.846 98.7368 130.711 98.3635C130.577 97.9902 130.542 97.5794 130.61 97.1831C130.679 96.7869 130.848 96.4228 131.096 96.1371C131.344 95.8514 131.661 95.6569 132.005 95.578C132.349 95.4992 132.706 95.5397 133.031 95.6943C133.355 95.8489 133.632 96.1108 133.827 96.4467C134.022 96.7827 134.126 97.1777 134.126 97.5817C134.126 98.1235 133.939 98.6431 133.606 99.0263C133.273 99.4094 132.822 99.6246 132.351 99.6246Z" fill="#6C63FF"/>
<path opacity="0.1" d="M132.351 94.262C131.781 94.262 131.223 94.4567 130.749 94.8214C130.274 95.1862 129.905 95.7047 129.686 96.3113C129.468 96.9179 129.411 97.5854 129.522 98.2294C129.634 98.8733 129.908 99.4648 130.312 99.9291C130.715 100.393 131.229 100.71 131.789 100.838C132.348 100.966 132.928 100.9 133.455 100.649C133.982 100.397 134.433 99.972 134.75 99.4261C135.067 98.8801 135.236 98.2383 135.236 97.5817C135.236 96.7013 134.932 95.8569 134.391 95.2343C133.85 94.6117 133.116 94.262 132.351 94.262ZM132.351 99.6246C132 99.6246 131.657 99.5048 131.365 99.2803C131.073 99.0559 130.846 98.7368 130.711 98.3635C130.577 97.9902 130.542 97.5794 130.61 97.1831C130.679 96.7869 130.848 96.4228 131.096 96.1371C131.344 95.8514 131.661 95.6569 132.005 95.578C132.349 95.4992 132.706 95.5397 133.031 95.6943C133.355 95.8489 133.632 96.1108 133.827 96.4467C134.022 96.7827 134.126 97.1777 134.126 97.5817C134.126 98.1235 133.939 98.6431 133.606 99.0263C133.273 99.4094 132.822 99.6246 132.351 99.6246Z" fill="black"/>
<path d="M121.257 91.7083H132.351V104.345C132.351 104.786 132.199 105.21 131.928 105.521C131.657 105.833 131.289 106.009 130.906 106.009H122.703C122.319 106.009 121.952 105.833 121.681 105.521C121.41 105.21 121.257 104.786 121.257 104.345V91.7083Z" fill="#6C63FF"/>
<path d="M144 106.009H0V111.627H144V106.009Z" fill="#E0E0E0"/>
<g opacity="0.7">
<path opacity="0.7" d="M94.7168 68.4189C93.1734 61.9715 84.4238 57.2633 77.8403 56.2194C77.8412 56.1718 77.8434 56.1246 77.8434 56.0768V50.5577C77.8504 50.5548 77.8576 50.5523 77.8646 50.5493V50.3401C80.2011 49.3401 82.3095 47.7417 84.0303 45.666C85.7512 43.5902 87.0394 41.0914 87.7978 38.3583C88.2047 37.5116 88.5589 36.6328 88.8577 35.7284C89.5605 35.4339 90.0913 34.1 90.0913 32.4973C90.0939 31.9491 90.0271 31.4034 89.8929 30.8774C89.9792 30.0611 90.0232 29.2397 90.0247 28.4174C90.0274 25.5429 89.505 22.6999 88.4912 20.0728C87.4775 17.4458 85.9951 15.0934 84.1403 13.1684C84.1954 12.8382 84.2141 12.5013 84.1959 12.1657C84.047 9.51676 81.5886 7.71709 79.2845 7.59672C79.8932 6.80207 80.2933 5.82493 80.4384 4.77888C80.5836 3.73284 80.4678 2.66086 80.1045 1.68757C78.6353 4.15098 75.6192 4.41283 73.0231 4.43221C74.1433 3.93293 74.6474 2.1466 73.9959 0.985107C71.2826 5.17069 65.9935 5.94575 62.7663 9.61661C62.0633 10.4195 61.4741 11.3445 61.0202 12.3576C58.9229 14.2806 57.2297 16.7233 56.0665 19.5039C54.9034 22.2845 54.3003 25.3313 54.3023 28.4174C54.3038 29.2322 54.3469 30.0462 54.4316 30.8552C54.2933 31.3879 54.2243 31.9413 54.227 32.4973C54.227 34.1074 54.7628 35.4453 55.4704 35.7316C55.7705 36.6391 56.1263 37.5209 56.5351 38.3703C57.2908 41.0875 58.5706 43.5728 60.2787 45.6405C61.9868 47.7081 64.079 49.3044 66.3988 50.31V56.0768C66.3988 56.1212 66.4009 56.165 66.4017 56.2092C59.7933 57.2352 50.9737 61.9804 49.4441 68.4797C48.1231 74.0923 46.7131 80.2562 46.0115 83.8752C52.0251 88.7383 64.6434 91.5939 72.5514 91.5939C80.0649 91.5939 92.3454 89.0165 98.1819 84.5883C97.5497 80.6119 96.0952 74.1773 94.7168 68.4189Z" fill="url(#paint1_linear)"/>
</g>
<path d="M72.5352 89.9929C79.7832 89.9929 91.6298 87.5066 97.26 83.2349C96.6502 79.399 95.2471 73.1918 93.9173 67.6369C92.2239 60.5623 81.5357 55.6577 75.1598 55.6577H69.0158C62.6201 55.6577 51.9166 60.5907 50.2444 67.6955C48.9701 73.1098 47.6099 79.0559 46.9331 82.5469C52.7342 87.2383 64.9067 89.9929 72.5352 89.9929Z" fill="#6C63FF"/>
<path d="M72.161 48.8794C81.6768 48.8794 89.391 40.0011 89.391 29.0491C89.391 18.0971 81.6768 9.21875 72.161 9.21875C62.6451 9.21875 54.9309 18.0971 54.9309 29.0491C54.9309 40.0011 62.6451 48.8794 72.161 48.8794Z" fill="#72351C"/>
<path opacity="0.1" d="M66.6001 45.5659H77.6403V55.731C77.6403 57.416 77.0587 59.0319 76.0235 60.2234C74.9883 61.4148 73.5842 62.0842 72.1202 62.0842H72.1202C70.6562 62.0842 69.2521 61.4148 68.2169 60.2234C67.1817 59.0319 66.6001 57.416 66.6001 55.731V45.5659H66.6001Z" fill="black"/>
<path d="M68.1837 45.0952H76.0567C76.4767 45.0952 76.8795 45.2872 77.1765 45.629C77.4735 45.9708 77.6403 46.4344 77.6403 46.9178V55.2603C77.6403 56.9453 77.0587 58.5612 76.0235 59.7527C74.9883 60.9441 73.5842 61.6135 72.1202 61.6135H72.1202C70.6562 61.6135 69.2521 60.9441 68.2169 59.7527C67.1817 58.5612 66.6001 56.9453 66.6001 55.2603V46.9178C66.6001 46.4344 66.7669 45.9708 67.0639 45.629C67.3609 45.2872 67.7637 45.0952 68.1837 45.0952Z" fill="#FDA57D"/>
<path opacity="0.1" d="M66.6206 50.3637C70.1787 51.8937 74.0954 51.9062 77.6608 50.3988V48.8379H66.6206V50.3637Z" fill="black"/>
<path d="M72.161 51.2145C80.9005 51.2145 87.9853 43.0605 87.9853 33.002C87.9853 22.9435 80.9005 14.7896 72.161 14.7896C63.4215 14.7896 56.3367 22.9435 56.3367 33.002C56.3367 43.0605 63.4215 51.2145 72.161 51.2145Z" fill="#FDA57D"/>
<path opacity="0.1" d="M60.8894 16.4359C60.8894 16.4359 67.5584 32.0159 86.3709 22.9657L81.9913 15.0612L74.2274 11.8535L60.8894 16.4359Z" fill="black"/>
<path d="M60.8894 16.2066C60.8894 16.2066 67.5584 31.7867 86.3709 22.7365L81.9913 14.8319L74.2274 11.6243L60.8894 16.2066Z" fill="#72351C"/>
<path d="M60.8301 15.1541C61.2796 13.5519 62.0566 12.0973 63.0959 10.9124C66.209 7.37129 71.3112 6.62362 73.9286 2.58594C74.5571 3.70639 74.0708 5.42961 72.9902 5.91123C75.4945 5.89254 78.4041 5.63994 79.8214 3.26358C80.1718 4.20248 80.2835 5.23658 80.1435 6.24566C80.0035 7.25474 79.6175 8.19736 79.0304 8.96393C81.253 9.08004 83.6246 10.8161 83.7682 13.3715C83.8639 15.0739 82.9364 16.6857 81.7209 17.6621C80.5054 18.6384 79.0348 19.0866 77.5873 19.4539C73.3618 20.5261 58.0728 25.0201 60.8301 15.1541Z" fill="#72351C"/>
<path d="M87.9848 33.1614H87.5653L79.4032 41.5242C71.5398 37.2855 65.7666 41.5242 65.7666 41.5242L57.2064 33.5051L56.3433 33.6299C56.4603 38.4098 58.206 42.9451 61.2036 46.2563C64.2012 49.5675 68.21 51.389 72.3645 51.3275C76.519 51.266 80.4857 49.3264 83.4083 45.9275C86.3309 42.5286 87.9747 37.9432 87.9848 33.1614ZM72.137 44.7318C69.0585 44.7318 66.5629 44.0138 66.5629 43.128C66.5629 42.2423 69.0585 41.5242 72.137 41.5242C75.2155 41.5242 77.7111 42.2422 77.7111 43.128C77.7111 44.0138 75.2155 44.7318 72.137 44.7318Z" fill="#72351C"/>
<path d="M56.3304 36.1613C57.1434 36.1613 57.8025 34.7391 57.8025 32.9847C57.8025 31.2303 57.1434 29.8081 56.3304 29.8081C55.5174 29.8081 54.8584 31.2303 54.8584 32.9847C54.8584 34.7391 55.5174 36.1613 56.3304 36.1613Z" fill="#FDA57D"/>
<path d="M87.9833 36.1613C88.7962 36.1613 89.4553 34.7391 89.4553 32.9847C89.4553 31.2303 88.7962 29.8081 87.9833 29.8081C87.1703 29.8081 86.5112 31.2303 86.5112 32.9847C86.5112 34.7391 87.1703 36.1613 87.9833 36.1613Z" fill="#FDA57D"/>
<g opacity="0.7">
<path opacity="0.7" d="M100.47 65.4231H43.53C42.3429 65.4231 41.3806 66.5306 41.3806 67.8969V103.535C41.3806 104.901 42.3429 106.009 43.53 106.009H100.47C101.657 106.009 102.619 104.901 102.619 103.535V67.8969C102.619 66.5306 101.657 65.4231 100.47 65.4231Z" fill="url(#paint2_linear)"/>
</g>
<path d="M97.5322 66.1719H46.4678C44.2709 66.1719 42.49 68.2216 42.49 70.75V101.431C42.49 103.959 44.2709 106.009 46.4678 106.009H97.5322C99.7291 106.009 101.51 103.959 101.51 101.431V70.75C101.51 68.2216 99.7291 66.1719 97.5322 66.1719Z" fill="#535461"/>
<path d="M71.9999 88.3885C73.1027 88.3885 73.9968 87.3596 73.9968 86.0903C73.9968 84.821 73.1027 83.792 71.9999 83.792C70.897 83.792 70.0029 84.821 70.0029 86.0903C70.0029 87.3596 70.897 88.3885 71.9999 88.3885Z" fill="white"/>
<path d="M137.898 111.627H6.10181V113.925H137.898V111.627Z" fill="#E0E0E0"/>
<path opacity="0.1" d="M137.898 111.627H6.10181V112.393H137.898V111.627Z" fill="black"/>
<path opacity="0.1" d="M130.354 91.7083V103.519C130.354 104.179 130.126 104.813 129.721 105.279C129.315 105.746 128.765 106.009 128.191 106.009H129.3C129.874 106.009 130.424 105.746 130.83 105.279C131.236 104.813 131.464 104.179 131.464 103.519V91.7083H130.354Z" fill="black"/>
<path d="M123.447 82.1891C123.26 82.226 123.048 82.2841 122.957 82.4754C122.811 82.779 123.075 83.1214 123.316 83.33C123.76 83.7154 124.229 84.094 124.531 84.632C124.833 85.17 124.928 85.9207 124.598 86.4363C124.166 87.1095 123.137 87.2543 123.038 88.0829C122.974 88.6148 123.373 89.0687 123.778 89.3356C124.777 89.9945 126.066 90.1702 126.79 91.2011C127.089 90.4925 127.759 90.0828 128.426 89.9079C129.094 89.733 129.788 89.746 130.464 89.6274C130.683 89.5891 130.929 89.5123 131.027 89.2841C131.216 88.8421 130.677 88.3121 130.863 87.8684C131.004 87.5307 131.421 87.5569 131.725 87.4217C132.219 87.2015 132.423 86.4686 132.283 85.8798C132.142 85.291 131.746 84.8309 131.329 84.4536C130.204 83.4369 128.853 82.839 127.485 82.4089C126.849 82.2089 126.103 81.8952 125.442 81.8649C124.805 81.8356 124.078 82.0649 123.447 82.1891Z" fill="#EEEEEE"/>
</g>
<defs>
<linearGradient id="paint0_linear" x1="128.247" y1="106.69" x2="128.247" y2="91.0273" gradientUnits="userSpaceOnUse">
<stop stop-color="#808080" stop-opacity="0.25"/>
<stop offset="0.53514" stop-color="#808080" stop-opacity="0.12"/>
<stop offset="1" stop-color="#808080" stop-opacity="0.1"/>
</linearGradient>
<linearGradient id="paint1_linear" x1="31382.3" y1="58906.2" x2="31382.3" y2="10783.4" gradientUnits="userSpaceOnUse">
<stop stop-color="#808080" stop-opacity="0.25"/>
<stop offset="0.53514" stop-color="#808080" stop-opacity="0.12"/>
<stop offset="1" stop-color="#808080" stop-opacity="0.1"/>
</linearGradient>
<linearGradient id="paint2_linear" x1="29786.3" y1="25049.9" x2="29786.3" y2="15394.8" gradientUnits="userSpaceOnUse">
<stop stop-color="#808080" stop-opacity="0.25"/>
<stop offset="0.53514" stop-color="#808080" stop-opacity="0.12"/>
<stop offset="1" stop-color="#808080" stop-opacity="0.1"/>
</linearGradient>
<clipPath id="clip0">
<rect width="144" height="112.94" fill="white" transform="translate(0 0.985107)"/>
</clipPath>
</defs>
</svg>
