<svg width="210" height="149" viewBox="0 0 210 149" fill="none" xmlns="http://www.w3.org/2000/svg">
<g clip-path="url(#clip0)">
<path d="M172.853 47.821C165.687 42.5593 154.463 37.5832 142.06 34.1686C130.766 31.0596 119.751 29.5586 111.041 29.9419L110.995 28.947C119.809 28.5593 130.939 30.073 142.333 33.2097C154.852 36.6561 166.198 41.691 173.46 47.0234L172.853 47.821Z" fill="#CCCCCC"/>
<path d="M172.109 51.8738C172.115 56.5356 171.12 61.1463 169.189 65.4046C169.028 65.7611 168.86 66.1143 168.685 66.4642C165.326 73.2223 159.734 78.6629 152.822 81.8988C145.91 85.1346 138.086 85.9747 130.625 84.282C123.164 82.5893 116.508 78.4637 111.741 72.5782C106.975 66.6926 104.379 59.3944 104.378 51.8739C104.378 51.104 104.405 50.3402 104.458 49.5824C104.483 49.197 104.516 48.8139 104.557 48.4332C105.455 39.9554 109.632 32.1398 116.226 26.5991C122.821 21.0583 131.329 18.2153 139.996 18.6567C148.662 19.0982 156.826 22.7903 162.801 28.9713C168.777 35.1522 172.109 43.3504 172.109 51.8739V51.8738Z" fill="#6C63FF"/>
<path opacity="0.1" d="M169.189 65.4045C169.028 65.7611 168.86 66.1143 168.685 66.4641C167.695 66.5697 166.654 66.6464 165.56 66.6942C164.655 66.734 163.723 66.7539 162.771 66.7539C154.454 66.7539 144.446 65.2462 134.221 62.4319C122.827 59.2949 112.518 54.9072 105.193 50.0763C104.944 49.9119 104.699 49.7473 104.458 49.5823C104.483 49.1969 104.516 48.8138 104.557 48.4331C104.945 48.705 105.345 48.9772 105.758 49.2497C112.997 54.0229 123.202 58.3638 134.495 61.4729C144.63 64.2633 154.545 65.7581 162.766 65.7581C163.705 65.7581 164.622 65.7385 165.514 65.6993C166.814 65.6416 168.039 65.5433 169.189 65.4045Z" fill="black"/>
<path d="M162.771 65.9575C154.455 65.9577 144.446 64.4498 134.222 61.6352C122.827 58.4984 112.518 54.1105 105.193 49.2797C97.7155 44.3481 94.2091 39.4887 95.3198 35.5967C96.4304 31.7046 101.998 29.3431 110.996 28.947L111.041 29.9419C106.839 30.1268 103.415 30.7403 100.863 31.7651C98.3173 32.7874 96.7808 34.167 96.2961 35.8655C95.8114 37.5639 96.394 39.5268 98.0277 41.6997C99.6654 43.8778 102.266 46.1499 105.758 48.4529C112.996 53.2263 123.202 57.5673 134.495 60.6763C144.631 63.4665 154.544 64.9616 162.766 64.9618C163.705 64.9618 164.621 64.9422 165.514 64.903C169.716 64.718 173.14 64.1046 175.692 63.0798C178.238 62.0575 179.774 60.6779 180.259 58.9794C181.129 55.9296 178.499 51.9668 172.853 47.821L173.46 47.0234C176.366 49.1568 178.516 51.2598 179.853 53.2737C181.285 55.4327 181.75 57.4429 181.235 59.2482C180.125 63.1403 174.557 65.5017 165.56 65.8978C164.654 65.9377 163.723 65.9575 162.771 65.9575Z" fill="#CCCCCC"/>
<path d="M139.139 12.6131C139.354 12.6131 139.527 12.4425 139.527 12.232C139.527 12.0215 139.354 11.8508 139.139 11.8508C138.925 11.8508 138.751 12.0215 138.751 12.232C138.751 12.4425 138.925 12.6131 139.139 12.6131Z" fill="#F2F2F2"/>
<path d="M87.656 29.1525C88.0247 29.1525 88.3236 28.8589 88.3236 28.4968C88.3236 28.1346 88.0247 27.8411 87.656 27.8411C87.2873 27.8411 86.9884 28.1346 86.9884 28.4968C86.9884 28.8589 87.2873 29.1525 87.656 29.1525Z" fill="#CCCCCC"/>
<path d="M86.233 55.4559C86.9614 55.4559 87.5519 54.876 87.5519 54.1606C87.5519 53.4452 86.9614 52.8652 86.233 52.8652C85.5046 52.8652 84.9142 53.4452 84.9142 54.1606C84.9142 54.876 85.5046 55.4559 86.233 55.4559Z" fill="#CCCCCC"/>
<path d="M165.399 15.3824C165.884 15.3824 166.278 14.9959 166.278 14.5191C166.278 14.0423 165.884 13.6558 165.399 13.6558C164.913 13.6558 164.52 14.0423 164.52 14.5191C164.52 14.9959 164.913 15.3824 165.399 15.3824Z" fill="#CCCCCC"/>
<path d="M196.573 51.7509C197.361 51.7509 198 51.1233 198 50.3492C198 49.5751 197.361 48.9475 196.573 48.9475C195.785 48.9475 195.146 49.5751 195.146 50.3492C195.146 51.1233 195.785 51.7509 196.573 51.7509Z" fill="#CCCCCC"/>
<path d="M185.414 28.5636C185.752 28.5636 186.026 28.2944 186.026 27.9622C186.026 27.6301 185.752 27.3608 185.414 27.3608C185.076 27.3608 184.801 27.6301 184.801 27.9622C184.801 28.2944 185.076 28.5636 185.414 28.5636Z" fill="#CCCCCC"/>
<path d="M111.069 21.1745C111.597 21.1745 112.024 20.7544 112.024 20.2363C112.024 19.7181 111.597 19.2981 111.069 19.2981C110.542 19.2981 110.114 19.7181 110.114 20.2363C110.114 20.7544 110.542 21.1745 111.069 21.1745Z" fill="#CCCCCC"/>
<path d="M183.271 48.1083C183.609 48.1083 183.883 47.839 183.883 47.5069C183.883 47.1748 183.609 46.9055 183.271 46.9055C182.932 46.9055 182.658 47.1748 182.658 47.5069C182.658 47.839 182.932 48.1083 183.271 48.1083Z" fill="#CCCCCC"/>
<path d="M89.3379 73.2043C89.7588 73.2043 90.1 72.8692 90.1 72.4558C90.1 72.0424 89.7588 71.7073 89.3379 71.7073C88.917 71.7073 88.5758 72.0424 88.5758 72.4558C88.5758 72.8692 88.917 73.2043 89.3379 73.2043Z" fill="#CCCCCC"/>
<path d="M104.731 83.6844C105.187 83.6844 105.556 83.3215 105.556 82.8738C105.556 82.4261 105.187 82.0632 104.731 82.0632C104.275 82.0632 103.906 82.4261 103.906 82.8738C103.906 83.3215 104.275 83.6844 104.731 83.6844Z" fill="#CCCCCC"/>
<path d="M128.722 1.25756H127.094V-0.342041H126.22V1.25756H124.59V2.11646H126.22V3.71606H127.094V2.11646H128.722V1.25756Z" fill="#CCCCCC"/>
<path d="M166.501 87.8109H165.478V86.8066H164.93V87.8109H163.907V88.3499H164.93V89.3542H165.478V88.3499H166.501V87.8109Z" fill="#CCCCCC"/>
<path d="M190.105 82.6698H189.341V81.9189H188.93V82.6698H188.166V83.073H188.93V83.8238H189.341V83.073H190.105V82.6698Z" fill="#CCCCCC"/>
<path opacity="0.1" d="M138.751 28.6239C140.323 28.6239 141.597 27.3725 141.597 25.8288C141.597 24.2851 140.323 23.0337 138.751 23.0337C137.18 23.0337 135.905 24.2851 135.905 25.8288C135.905 27.3725 137.18 28.6239 138.751 28.6239Z" fill="black"/>
<path opacity="0.1" d="M116.89 49.0787C118.462 49.0787 119.736 47.8273 119.736 46.2836C119.736 44.7399 118.462 43.4885 116.89 43.4885C115.319 43.4885 114.045 44.7399 114.045 46.2836C114.045 47.8273 115.319 49.0787 116.89 49.0787Z" fill="black"/>
<path opacity="0.1" d="M148.323 77.1566C149.895 77.1566 151.169 75.9052 151.169 74.3615C151.169 72.8178 149.895 71.5664 148.323 71.5664C146.752 71.5664 145.478 72.8178 145.478 74.3615C145.478 75.9052 146.752 77.1566 148.323 77.1566Z" fill="black"/>
<path opacity="0.1" d="M138.751 53.3983C140.323 53.3983 141.597 52.1469 141.597 50.6032C141.597 49.0595 140.323 47.8081 138.751 47.8081C137.18 47.8081 135.905 49.0595 135.905 50.6032C135.905 52.1469 137.18 53.3983 138.751 53.3983Z" fill="black"/>
<path opacity="0.1" d="M118.313 68.7713C119.885 68.7713 121.159 67.5199 121.159 65.9762C121.159 64.4325 119.885 63.1812 118.313 63.1812C116.742 63.1812 115.467 64.4325 115.467 65.9762C115.467 67.5199 116.742 68.7713 118.313 68.7713Z" fill="black"/>
<path opacity="0.1" d="M154.015 38.4066C155.587 38.4066 156.861 37.1552 156.861 35.6115C156.861 34.0678 155.587 32.8164 154.015 32.8164C152.444 32.8164 151.17 34.0678 151.17 35.6115C151.17 37.1552 152.444 38.4066 154.015 38.4066Z" fill="black"/>
<path opacity="0.1" d="M163.458 57.337C165.03 57.337 166.304 56.0856 166.304 54.5419C166.304 52.9982 165.03 51.7468 163.458 51.7468C161.887 51.7468 160.612 52.9982 160.612 54.5419C160.612 56.0856 161.887 57.337 163.458 57.337Z" fill="black"/>
<path d="M138.751 42.091C140.823 42.091 142.503 40.4414 142.503 38.4066C142.503 36.3717 140.823 34.7222 138.751 34.7222C136.68 34.7222 135 36.3717 135 38.4066C135 40.4414 136.68 42.091 138.751 42.091Z" fill="white"/>
<path d="M138.751 33.0706C137.345 33.0706 135.996 33.6194 135.001 34.5962C134.007 35.5731 133.448 36.898 133.448 38.2796C133.448 41.1564 138.751 50.6033 138.751 50.6033C138.751 50.6033 144.055 41.1564 144.055 38.2796C144.055 36.898 143.496 35.5731 142.502 34.5962C141.507 33.6194 140.158 33.0706 138.751 33.0706ZM138.751 40.8205C138.265 40.8205 137.79 40.679 137.386 40.4137C136.982 40.1485 136.667 39.7715 136.481 39.3304C136.295 38.8893 136.246 38.4039 136.341 37.9357C136.436 37.4674 136.67 37.0373 137.014 36.6997C137.357 36.3621 137.795 36.1322 138.272 36.0391C138.749 35.9459 139.243 35.9937 139.692 36.1764C140.141 36.3591 140.525 36.6685 140.795 37.0655C141.065 37.4625 141.209 37.9292 141.209 38.4066C141.209 38.7236 141.146 39.0375 141.022 39.3304C140.899 39.6233 140.718 39.8894 140.489 40.1135C140.261 40.3377 139.99 40.5155 139.692 40.6368C139.394 40.7581 139.074 40.8205 138.751 40.8205Z" fill="#CCCCCC"/>
<path d="M118.313 57.8452C120.385 57.8452 122.065 56.1956 122.065 54.1607C122.065 52.1259 120.385 50.4763 118.313 50.4763C116.242 50.4763 114.562 52.1259 114.562 54.1607C114.562 56.1956 116.242 57.8452 118.313 57.8452Z" fill="white"/>
<path d="M118.313 48.8247C116.907 48.8247 115.558 49.3735 114.563 50.3504C113.569 51.3273 113.01 52.6522 113.01 54.0337C113.01 56.9106 118.313 66.3575 118.313 66.3575C118.313 66.3575 123.617 56.9106 123.617 54.0337C123.617 53.3497 123.48 52.6723 123.213 52.0403C122.947 51.4083 122.556 50.8341 122.064 50.3504C121.571 49.8667 120.986 49.483 120.343 49.2212C119.7 48.9594 119.01 48.8247 118.313 48.8247ZM118.313 56.5747C117.827 56.5747 117.352 56.4331 116.948 56.1679C116.544 55.9026 116.229 55.5256 116.043 55.0845C115.857 54.6434 115.808 54.1581 115.903 53.6898C115.998 53.2216 116.232 52.7914 116.576 52.4538C116.919 52.1163 117.357 51.8864 117.834 51.7932C118.311 51.7001 118.805 51.7479 119.254 51.9306C119.703 52.1133 120.087 52.4227 120.357 52.8197C120.627 53.2166 120.771 53.6833 120.771 54.1608C120.771 54.4778 120.708 54.7917 120.584 55.0845C120.461 55.3774 120.28 55.6435 120.051 55.8677C119.823 56.0918 119.552 56.2696 119.254 56.391C118.956 56.5123 118.636 56.5747 118.313 56.5747Z" fill="#CCCCCC"/>
<path d="M163.458 46.4106C165.53 46.4106 167.209 44.761 167.209 42.7262C167.209 40.6913 165.53 39.0417 163.458 39.0417C161.386 39.0417 159.707 40.6913 159.707 42.7262C159.707 44.761 161.386 46.4106 163.458 46.4106Z" fill="white"/>
<path d="M163.458 37.3901C162.761 37.3901 162.072 37.5249 161.428 37.7867C160.785 38.0484 160.2 38.4321 159.708 38.9158C159.215 39.3995 158.825 39.9738 158.558 40.6058C158.292 41.2377 158.154 41.9151 158.154 42.5992C158.154 45.476 163.458 54.9229 163.458 54.9229C163.458 54.9229 168.762 45.476 168.762 42.5992C168.762 41.9151 168.624 41.2377 168.358 40.6058C168.091 39.9738 167.701 39.3995 167.208 38.9158C166.716 38.4321 166.131 38.0484 165.488 37.7867C164.844 37.5249 164.154 37.3901 163.458 37.3901ZM163.458 45.1401C162.972 45.1401 162.497 44.9986 162.093 44.7333C161.688 44.4681 161.373 44.0911 161.187 43.65C161.001 43.2089 160.953 42.7235 161.047 42.2553C161.142 41.787 161.376 41.3569 161.72 41.0193C162.064 40.6817 162.502 40.4518 162.978 40.3586C163.455 40.2655 163.949 40.3133 164.399 40.496C164.848 40.6787 165.231 40.9881 165.502 41.3851C165.772 41.7821 165.916 42.2488 165.916 42.7262C165.916 43.0432 165.852 43.3571 165.729 43.65C165.605 43.9428 165.424 44.209 165.196 44.4331C164.968 44.6573 164.697 44.8351 164.399 44.9564C164.1 45.0777 163.781 45.1401 163.458 45.1401Z" fill="#CCCCCC"/>
<path d="M138.751 17.3164C140.823 17.3164 142.503 15.6668 142.503 13.6319C142.503 11.5971 140.823 9.94751 138.751 9.94751C136.68 9.94751 135 11.5971 135 13.6319C135 15.6668 136.68 17.3164 138.751 17.3164Z" fill="white"/>
<path d="M138.751 8.2959C137.345 8.2959 135.996 8.8447 135.001 9.82158C134.007 10.7985 133.448 12.1234 133.448 13.5049C133.448 16.3818 138.751 25.8287 138.751 25.8287C138.751 25.8287 144.055 16.3818 144.055 13.5049C144.055 12.1234 143.496 10.7985 142.502 9.82158C141.507 8.8447 140.158 8.2959 138.751 8.2959ZM138.751 16.0459C138.265 16.0459 137.79 15.9043 137.386 15.6391C136.982 15.3738 136.667 14.9968 136.481 14.5557C136.295 14.1146 136.246 13.6293 136.341 13.161C136.436 12.6928 136.67 12.2626 137.014 11.925C137.357 11.5874 137.795 11.3575 138.272 11.2644C138.749 11.1713 139.243 11.2191 139.692 11.4018C140.141 11.5845 140.525 11.8939 140.795 12.2908C141.065 12.6878 141.209 13.1545 141.209 13.632C141.209 13.949 141.146 14.2629 141.022 14.5557C140.899 14.8486 140.718 15.1147 140.489 15.3389C140.261 15.563 139.99 15.7408 139.692 15.8621C139.394 15.9835 139.074 16.0459 138.751 16.0459Z" fill="#CCCCCC"/>
<path d="M148.324 66.2302C150.395 66.2302 152.075 64.5806 152.075 62.5458C152.075 60.5109 150.395 58.8613 148.324 58.8613C146.252 58.8613 144.572 60.5109 144.572 62.5458C144.572 64.5806 146.252 66.2302 148.324 66.2302Z" fill="white"/>
<path d="M148.324 57.2097C146.917 57.2097 145.568 57.7585 144.574 58.7354C143.579 59.7123 143.02 61.0372 143.02 62.4187C143.02 65.2956 148.324 74.7425 148.324 74.7425C148.324 74.7425 153.627 65.2956 153.627 62.4187C153.627 61.7347 153.49 61.0573 153.224 60.4253C152.957 59.7933 152.566 59.2191 152.074 58.7354C151.581 58.2517 150.997 57.868 150.353 57.6062C149.71 57.3444 149.02 57.2097 148.324 57.2097ZM148.324 64.9597C147.838 64.9597 147.362 64.8181 146.958 64.5529C146.554 64.2876 146.239 63.9106 146.053 63.4695C145.867 63.0284 145.818 62.5431 145.913 62.0748C146.008 61.6066 146.242 61.1765 146.586 60.8389C146.93 60.5013 147.367 60.2714 147.844 60.1782C148.321 60.0851 148.815 60.1329 149.264 60.3156C149.713 60.4983 150.097 60.8077 150.367 61.2047C150.637 61.6016 150.781 62.0683 150.781 62.5458C150.781 62.8628 150.718 63.1767 150.594 63.4695C150.471 63.7624 150.29 64.0285 150.062 64.2527C149.833 64.4768 149.562 64.6546 149.264 64.776C148.966 64.8973 148.646 64.9597 148.324 64.9597Z" fill="#3F3D56"/>
<path d="M116.89 37.8984C118.962 37.8984 120.641 36.2488 120.641 34.214C120.641 32.1791 118.962 30.5295 116.89 30.5295C114.818 30.5295 113.139 32.1791 113.139 34.214C113.139 36.2488 114.818 37.8984 116.89 37.8984Z" fill="white"/>
<path d="M116.89 28.8779C115.484 28.8779 114.135 29.4267 113.14 30.4036C112.145 31.3805 111.587 32.7054 111.587 34.0869C111.587 36.9638 116.89 46.4107 116.89 46.4107C116.89 46.4107 122.194 36.9638 122.194 34.0869C122.194 32.7054 121.635 31.3805 120.64 30.4036C119.646 29.4267 118.297 28.8779 116.89 28.8779ZM116.89 36.6279C116.404 36.6279 115.929 36.4863 115.525 36.2211C115.12 35.9558 114.805 35.5788 114.619 35.1378C114.433 34.6967 114.385 34.2113 114.48 33.743C114.574 33.2748 114.808 32.8447 115.152 32.5071C115.496 32.1695 115.934 31.9396 116.411 31.8464C116.887 31.7533 117.382 31.8011 117.831 31.9838C118.28 32.1665 118.664 32.4759 118.934 32.8729C119.204 33.2698 119.348 33.7365 119.348 34.214C119.348 34.531 119.284 34.8449 119.161 35.1378C119.037 35.4306 118.856 35.6967 118.628 35.9209C118.4 36.145 118.129 36.3229 117.831 36.4442C117.532 36.5655 117.213 36.6279 116.89 36.6279Z" fill="#3F3D56"/>
<path d="M154.015 27.6074C156.087 27.6074 157.766 25.9578 157.766 23.923C157.766 21.8881 156.087 20.2385 154.015 20.2385C151.943 20.2385 150.264 21.8881 150.264 23.923C150.264 25.9578 151.943 27.6074 154.015 27.6074Z" fill="white"/>
<path d="M154.015 18.5869C152.608 18.5869 151.26 19.1357 150.265 20.1126C149.27 21.0895 148.712 22.4144 148.712 23.7959C148.712 26.6728 154.015 36.1197 154.015 36.1197C154.015 36.1197 159.319 26.6728 159.319 23.7959C159.319 22.4144 158.76 21.0895 157.765 20.1126C156.771 19.1357 155.422 18.5869 154.015 18.5869ZM154.015 26.3369C153.529 26.3369 153.054 26.1953 152.65 25.9301C152.245 25.6648 151.93 25.2878 151.744 24.8467C151.558 24.4056 151.51 23.9203 151.605 23.452C151.699 22.9838 151.933 22.5536 152.277 22.2161C152.621 21.8785 153.059 21.6486 153.536 21.5554C154.012 21.4623 154.507 21.5101 154.956 21.6928C155.405 21.8755 155.789 22.1849 156.059 22.5819C156.329 22.9788 156.473 23.4455 156.473 23.923C156.473 24.5632 156.214 25.1772 155.753 25.6299C155.292 26.0826 154.667 26.3369 154.015 26.3369V26.3369Z" fill="#3F3D56"/>
<path d="M76.2889 136.801L79.2746 136.469L79.3886 125L74.9821 125.491L76.2889 136.801Z" fill="#FFB8B8"/>
<path d="M85.3468 138.55L75.9634 139.596L75.5521 136.035L81.31 135.393C82.2715 135.286 83.237 135.558 83.994 136.15C84.7511 136.742 85.2377 137.605 85.3468 138.55Z" fill="#2F2E41"/>
<path d="M45.5836 136.618L48.5885 136.618L50.0178 125.235L45.5831 125.235L45.5836 136.618Z" fill="#FFB8B8"/>
<path d="M54.3834 139.358L44.9398 139.359L44.9397 135.775L50.7346 135.775C51.7023 135.775 52.6304 136.152 53.3146 136.824C53.9989 137.496 54.3834 138.408 54.3834 139.358Z" fill="#2F2E41"/>
<path d="M67.1424 85.7131L68.858 91.1942L78.1715 110.989L80.6224 129.765L74.9853 130.006L71.554 112.674L59.7896 100.156L49.4957 132.895L44.839 132.413C44.839 132.413 48.7605 90.0461 54.1525 85.7131C54.1525 85.7131 62.9758 81.6208 67.1424 85.7131Z" fill="#2F2E41"/>
<path d="M59.532 62.0628C62.8566 62.0628 65.5517 59.4158 65.5517 56.1504C65.5517 52.8851 62.8566 50.238 59.532 50.238C56.2074 50.238 53.5123 52.8851 53.5123 56.1504C53.5123 59.4158 56.2074 62.0628 59.532 62.0628Z" fill="#FFB8B8"/>
<path d="M67.7548 86.7963C67.7548 86.7963 68.4901 62.2426 58.1962 63.9277C47.9024 65.6127 52.1915 89.3239 52.1915 89.3239C52.1915 89.3239 54.3973 93.6569 59.7893 88.8425C65.1814 84.028 67.7548 86.7963 67.7548 86.7963Z" fill="#CCCCCC"/>
<path opacity="0.2" d="M53.5397 74.2786L55.9619 83.3979L59.6523 87.0227L54.52 85.3518L53.5397 74.2786Z" fill="black"/>
<path d="M67.8311 97.1805C67.4923 97.0599 67.1846 96.8678 66.9297 96.6178C66.6747 96.3677 66.4787 96.0658 66.3554 95.7333C66.2321 95.4008 66.1845 95.0457 66.216 94.6932C66.2475 94.3407 66.3573 93.9992 66.5377 93.6929L60.8126 87.1829L65.3258 86.606L70.0705 92.8764C70.5744 93.2081 70.9369 93.7099 71.0893 94.2866C71.2416 94.8633 71.1733 95.4749 70.8973 96.0054C70.6212 96.536 70.1566 96.9486 69.5915 97.1652C69.0264 97.3818 68.4 97.3872 67.8311 97.1805Z" fill="#FFB8B8"/>
<path d="M60.8604 68.9287L61.5049 81.3799L69.1028 91.0088L65.9166 93.4161L55.6227 83.3057C55.6227 83.3057 51.9464 71.0288 54.6424 67.418C55.6534 66.0639 56.7678 65.6916 57.7659 65.755C58.5871 65.8222 59.3549 66.1819 59.9249 66.7664C60.4948 67.351 60.8275 68.12 60.8604 68.9287Z" fill="#CCCCCC"/>
<path d="M58.8159 62.363C58.8446 62.3377 58.867 62.3061 58.8812 62.2708C58.8953 62.2356 58.9009 62.1975 58.8975 62.1598C58.8941 62.122 58.8818 62.0855 58.8615 62.0532C58.8413 62.021 58.8136 61.9938 58.7808 61.9738C58.2462 61.6487 57.8107 61.1881 57.52 60.6405C57.2292 60.093 57.094 59.4786 57.1285 58.862C57.163 58.2453 57.366 57.6492 57.7161 57.1363C58.0662 56.6233 58.5505 56.2124 59.1181 55.9467C60.8879 55.1179 63.2861 55.7627 64.5944 54.1701C64.8605 53.8294 65.0487 53.4363 65.1461 53.0177C65.2434 52.599 65.2478 52.1647 65.1588 51.7443C64.8765 50.2401 63.7252 49.123 62.4358 48.3574C60.8518 47.417 59.0314 46.931 57.1807 46.9547C55.33 46.9783 53.5231 47.5106 51.9646 48.4912C50.4061 49.4718 49.1584 50.8615 48.3628 52.5028C47.5673 54.1442 47.2557 55.9716 47.4633 57.778C47.6298 59.2257 48.0846 60.8491 47.2081 62.0245C46.4367 63.059 44.9807 63.2529 43.7016 63.51C40.9583 64.0613 38.3117 65.3332 36.45 67.3876C34.5883 69.442 33.5951 72.3244 34.1564 75.0188C34.7177 77.7133 36.9696 80.0813 39.7373 80.4989C41.9901 80.8389 44.3163 79.8992 45.9706 78.3593C47.625 76.8194 48.6707 74.74 49.3302 72.5972C50.1131 70.0538 50.4219 67.3132 51.8353 65.0476C53.2184 62.8306 56.1989 61.2414 58.5349 62.396C58.5796 62.419 58.6304 62.4281 58.6806 62.4222C58.7307 62.4163 58.7779 62.3957 58.8159 62.363Z" fill="#2F2E41"/>
<path d="M105.488 139.658H30.2452C30.1802 139.658 30.1179 139.633 30.0719 139.587C30.0259 139.542 30.0001 139.481 30.0001 139.417C30.0001 139.353 30.0259 139.292 30.0719 139.247C30.1179 139.202 30.1802 139.177 30.2452 139.177H105.488C105.553 139.177 105.616 139.202 105.662 139.247C105.708 139.292 105.734 139.353 105.734 139.417C105.734 139.481 105.708 139.542 105.662 139.587C105.616 139.633 105.553 139.658 105.488 139.658Z" fill="#3F3D56"/>
</g>
<defs>
<clipPath id="clip0">
<rect width="210" height="149" fill="white" transform="translate(0.00012207)"/>
</clipPath>
</defs>
</svg>
