<svg width="166" height="133" viewBox="0 0 166 133" fill="none" xmlns="http://www.w3.org/2000/svg">
<g clip-path="url(#clip0)">
<path d="M136.243 106.88H12.9443V107.253H136.243V106.88Z" fill="#3F3D56"/>
<path d="M65.1097 7.61646V39.8397H111.449" stroke="#535461" stroke-width="2" stroke-miterlimit="10"/>
<path opacity="0.5" d="M73.9083 29.8796H69.2157V39.2537H73.9083V29.8796Z" fill="#6C63FF"/>
<path opacity="0.7" d="M82.1202 23.4351H76.8411V39.2537H82.1202V23.4351Z" fill="#6C63FF"/>
<path opacity="0.5" d="M90.9189 26.9504H85.6398V39.2539H90.9189V26.9504Z" fill="#6C63FF"/>
<path opacity="0.8" d="M98.5443 20.5059H93.8517V39.2539H98.5443V20.5059Z" fill="#6C63FF"/>
<path d="M106.756 13.4751H101.477V39.2537H106.756V13.4751Z" fill="#6C63FF"/>
<path d="M70.9755 25.1928L79.4718 16.3396L87.8337 24.7082L96.0514 14.5711L104.41 10.5459" stroke="#535461" stroke-width="2" stroke-miterlimit="10"/>
<path d="M71.562 26.3645C71.886 26.3645 72.1486 25.8399 72.1486 25.1927C72.1486 24.5456 71.886 24.021 71.562 24.021C71.2381 24.021 70.9755 24.5456 70.9755 25.1927C70.9755 25.8399 71.2381 26.3645 71.562 26.3645Z" fill="#6C63FF"/>
<path d="M87.6927 25.1927C88.1787 25.1927 88.5726 24.7992 88.5726 24.3139C88.5726 23.8285 88.1787 23.4351 87.6927 23.4351C87.2068 23.4351 86.8129 23.8285 86.8129 24.3139C86.8129 24.7992 87.2068 25.1927 87.6927 25.1927Z" fill="#6C63FF"/>
<path d="M96.4912 16.4045C96.9771 16.4045 97.3711 15.7487 97.3711 14.9398C97.3711 14.1309 96.9771 13.4751 96.4912 13.4751C96.0053 13.4751 95.6113 14.1309 95.6113 14.9398C95.6113 15.7487 96.0053 16.4045 96.4912 16.4045Z" fill="#6C63FF"/>
<path d="M80.0672 17.5764C80.5532 17.5764 80.9471 17.0518 80.9471 16.4047C80.9471 15.7575 80.5532 15.2329 80.0672 15.2329C79.5813 15.2329 79.1874 15.7575 79.1874 16.4047C79.1874 17.0518 79.5813 17.5764 80.0672 17.5764Z" fill="#6C63FF"/>
<path d="M104.703 12.3034C105.189 12.3034 105.583 11.6476 105.583 10.8387C105.583 10.0298 105.189 9.37402 104.703 9.37402C104.217 9.37402 103.823 10.0298 103.823 10.8387C103.823 11.6476 104.217 12.3034 104.703 12.3034Z" fill="#6C63FF"/>
<path d="M1.01208 74.0514C1.01208 74.0514 20.6044 0.559591 80.7072 45.8858C140.81 91.212 165.116 77.2224 165.116 77.2224" fill="#F2F2F2"/>
<path d="M117.093 119.378H61.9988V119.751H117.093V119.378Z" fill="#3F3D56"/>
<path d="M148.304 113.222H104.206C104.206 113.222 103.312 96.6219 108.601 96.4332C113.89 96.2446 113.294 103.79 119.923 93.415C126.553 83.0397 134.598 83.6056 135.641 89.7365C136.683 95.8673 133.629 100.772 139.216 99.2628C144.803 97.7537 152.848 101.715 148.304 113.222Z" fill="#6C63FF"/>
<path d="M125.511 113.226L125.362 113.218C125.709 102.289 127.517 95.2666 128.972 91.3002C130.552 86.9935 132.075 85.25 132.09 85.2329L132.189 85.3739C132.174 85.3908 130.669 87.117 129.102 91.3945C127.654 95.3441 125.856 102.338 125.511 113.226Z" fill="#F2F2F2"/>
<path d="M141.471 113.249L141.328 113.196C143.05 105.711 147.105 100.986 147.146 100.939L147.246 101.078C147.206 101.125 143.181 105.817 141.471 113.249Z" fill="#F2F2F2"/>
<path d="M111.151 113.235L111.004 113.209C111.588 107.873 110.533 103.734 109.544 101.2C108.474 98.4576 107.253 96.9596 107.241 96.9447L107.344 96.8086C107.357 96.8236 108.596 98.3447 109.678 101.117C110.675 103.674 111.741 107.852 111.151 113.235Z" fill="#F2F2F2"/>
<path d="M44.1552 121.616H0.0571723C0.0571723 121.616 -0.836709 105.015 4.45207 104.827C9.74086 104.638 9.14494 112.184 15.7745 101.809C22.4041 91.4333 30.449 91.9992 31.4919 98.13C32.5348 104.261 29.4807 109.166 35.0674 107.656C40.6542 106.147 48.6991 110.109 44.1552 121.616Z" fill="#6C63FF"/>
<path d="M21.3618 121.62L21.213 121.612C21.5601 110.683 23.3679 103.66 24.8233 99.694C26.4035 95.3873 27.9262 93.6438 27.9414 93.6267L28.0404 93.7677C28.0255 93.7846 26.5205 95.5108 24.9529 99.7883C23.5055 103.738 21.7077 110.731 21.3618 121.62Z" fill="#F2F2F2"/>
<path d="M37.322 121.642L37.179 121.59C38.9011 114.105 42.9565 109.379 42.9973 109.333L43.0974 109.472C43.057 109.519 39.0319 114.211 37.322 121.642Z" fill="#F2F2F2"/>
<path d="M7.00272 121.629L6.85513 121.603C7.43941 116.267 6.384 112.127 5.3957 109.594C4.3256 106.851 3.10463 105.353 3.09241 105.339L3.19548 105.202C3.20789 105.217 4.44774 106.739 5.52926 109.511C6.52679 112.068 7.5922 116.246 7.00272 121.629Z" fill="#F2F2F2"/>
<path d="M166 132.621H3.81104V132.994H166V132.621Z" fill="#3F3D56"/>
<path d="M137.892 107.664V111.013L140.096 111.199L139.949 107.292L137.892 107.664Z" fill="#A0616A"/>
<path d="M138.332 109.152L136.863 108.78C136.863 108.78 134.806 113.432 133.484 113.804C132.326 114.129 129.594 115.31 130.603 116.971C130.754 117.209 130.95 117.396 131.173 117.514C131.396 117.632 131.639 117.677 131.879 117.646L138.185 116.967C138.185 116.967 140.683 117.153 140.683 115.292V109.152H138.332Z" fill="#2F2E41"/>
<path d="M138.076 90.3276L137.443 108.494L141.451 109.83L138.076 90.3276Z" fill="#2F2E41"/>
<path d="M139.552 114.906V119.714L142.717 119.982L142.506 114.371L139.552 114.906Z" fill="#A0616A"/>
<path d="M133.012 67.0856L134.7 70.2914L138.498 99.1436L139.13 116.508H145.46L143.983 74.2987C143.983 74.2987 146.937 69.7571 144.827 65.2156L133.012 67.0856Z" fill="#2F2E41"/>
<path d="M140.185 117.043L138.076 116.509C138.076 116.509 135.122 123.187 133.223 123.722C131.595 124.18 127.798 125.815 129.005 128.124C129.215 128.509 129.503 128.815 129.839 129.012C130.175 129.208 130.546 129.287 130.914 129.24L139.974 128.263C139.974 128.263 143.561 128.53 143.561 125.859V117.043H140.185Z" fill="#2F2E41"/>
<path d="M140.396 30.4862C142.843 30.4862 144.827 27.9744 144.827 24.876C144.827 21.7776 142.843 19.2659 140.396 19.2659C137.949 19.2659 135.966 21.7776 135.966 24.876C135.966 27.9744 137.949 30.4862 140.396 30.4862Z" fill="#A0616A"/>
<path d="M137.865 27.8146V35.8291C137.865 36.0963 142.717 35.2948 142.717 35.2948C142.717 35.2948 142.928 27.8146 142.928 27.0132L137.865 27.8146Z" fill="#A0616A"/>
<path d="M143.139 31.2876C143.139 31.2876 140.396 30.4861 135.544 34.4934H134.7L134.489 40.6378C134.489 40.6378 131.535 44.6451 131.957 46.248C131.957 46.248 128.37 51.591 129.847 53.7282C129.847 53.7282 126.472 58.804 127.949 60.9412C127.949 60.9412 124.362 66.8185 126.472 67.62C126.472 67.62 131.113 67.62 133.645 68.1543C136.177 68.6886 146.726 65.75 146.726 65.75C146.726 65.75 146.937 58.8041 146.726 58.8041H146.515C146.515 58.8041 147.359 52.3924 146.937 52.1253C146.937 52.1253 147.148 44.9122 146.515 44.6451L143.139 31.2876Z" fill="#3F3D56"/>
<path d="M142.462 37.4401C141.688 37.5735 140.953 37.9523 140.326 38.5412C139.698 39.13 139.199 39.91 138.873 40.8088C138.263 42.5108 138.059 44.4014 138.286 46.2481C138.919 51.5911 140.396 53.194 140.396 53.194C140.396 53.194 138.919 53.9954 139.341 54.7969C139.763 55.5983 138.919 55.5983 138.919 55.5983C138.919 55.5983 138.919 55.8655 138.286 56.3998C137.653 56.9341 137.231 56.6669 137.02 56.9341C136.81 57.2012 135.966 56.9341 135.966 56.9341C135.966 56.9341 133.434 62.5442 135.966 63.0785C138.497 63.6128 139.552 60.9413 140.607 61.2085C141.662 61.4756 146.726 59.3384 146.304 54.2626C145.882 49.1867 143.983 37.165 142.506 37.4321L142.462 37.4401Z" fill="#D0CDE1"/>
<path d="M136.482 19.5302C136.59 18.9786 136.799 18.4668 137.092 18.0362C137.385 17.6057 137.754 17.2684 138.169 17.0516C138.999 16.6285 140.2 15.4112 140.952 16.0238C141.288 16.2973 141.577 16.6602 141.926 16.9055C142.491 17.302 143.159 17.3576 143.796 17.49C145.398 17.8231 146.74 20.0618 147.86 21.5506C148.979 23.0395 149.626 25.1399 149.424 27.1798C149.292 28.5256 148.814 29.7715 148.498 31.0673C148.182 32.363 148.04 33.8344 148.552 35.0254C149.14 36.3915 150.41 37.0183 151.267 38.1324C151.863 38.9419 152.239 39.9714 152.34 41.0706C152.44 42.1697 152.261 43.281 151.828 44.2421C151.637 44.6458 151.397 45.0248 151.297 45.4783C151.196 45.9317 151.285 46.5015 151.615 46.7192C151.766 46.7938 151.922 46.8504 152.081 46.8883C152.609 47.0904 152.931 47.7771 153.072 48.4531C153.213 49.1291 153.226 49.8435 153.399 50.5072C153.823 52.128 155.089 53.1086 156.263 53.9506C153.945 53.8716 151.59 53.7976 149.348 54.5414C148.384 54.8611 147.271 55.2994 146.465 54.5579C145.912 54.0497 145.701 53.1224 145.686 52.2578C145.67 51.3931 145.812 50.5331 145.797 49.6684C145.766 47.7995 144.975 46.0096 143.808 44.8645C143.117 44.1868 142.305 43.7174 141.652 42.9823C141.097 42.3435 140.679 41.5367 140.438 40.6376C140.196 39.7384 140.139 38.7763 140.272 37.8415C140.373 37.1705 140.573 36.5106 140.544 35.8285C140.485 34.4824 139.559 33.4291 139.36 32.1046C139.152 30.7131 139.777 29.3585 139.951 27.9594C140.031 27.1078 140.019 26.2463 139.915 25.3988C139.784 23.9927 139.586 22.5343 138.928 21.3899C138.309 20.3134 137.451 19.599 136.402 19.5202C136.064 19.4949 136.537 19.1276 136.402 19.5202" fill="#2F2E41"/>
<path d="M140.08 26.3452C140.313 26.3452 140.502 25.8668 140.502 25.2766C140.502 24.6864 140.313 24.208 140.08 24.208C139.847 24.208 139.658 24.6864 139.658 25.2766C139.658 25.8668 139.847 26.3452 140.08 26.3452Z" fill="#A0616A"/>
<path d="M21.2673 95.2224L22.8878 115.74L25.6867 115.181L26.8651 95.5955L21.2673 95.2224Z" fill="#FFB8B8"/>
<path d="M26.1285 113.129L22.2985 113.875L22.7404 119.844C22.7404 119.844 21.4146 120.777 22.2985 123.761C23.1823 126.745 23.1823 127.492 23.1823 127.492L26.2166 127.12C27.3925 126.976 30.2187 125.634 30.6215 124.227C30.7886 123.644 29.0052 123.523 28.6328 123.388C27.6016 123.015 26.1285 113.129 26.1285 113.129Z" fill="#2F2E41"/>
<path d="M35.7037 94.4761L37.3242 114.994L40.1231 114.435L41.3015 94.8491L35.7037 94.4761Z" fill="#FFB8B8"/>
<path d="M33.126 28.3523C35.648 28.3523 37.6926 25.7635 37.6926 22.57C37.6926 19.3764 35.648 16.7876 33.126 16.7876C30.6039 16.7876 28.5593 19.3764 28.5593 22.57C28.5593 25.7635 30.6039 28.3523 33.126 28.3523Z" fill="#FFB8B8"/>
<path d="M34.378 26.5801C34.378 26.5801 33.1995 30.4972 34.378 31.8029C35.5565 33.1086 26.5706 33.1086 26.5706 33.1086L30.2533 24.7148L34.378 26.5801Z" fill="#FFB8B8"/>
<path d="M43.0693 95.782C41.1542 100.072 22.4458 97.0877 22.4458 97.0877L19.2049 94.4763L17.8792 93.5437C17.8792 93.5437 18.763 75.6371 20.3834 64.6319C22.0039 53.6268 26.1286 52.8807 26.1286 52.8807L26.1433 52.6643L26.2759 50.6424C26.2759 50.6424 26.1536 50.4764 25.9429 50.1761C24.6304 48.2977 19.9165 41.1817 20.6781 36.8393C21.5619 31.8031 28.1909 29.3782 32.1683 29.1917C36.1457 29.0052 39.5338 33.4818 39.5338 33.4818L38.9593 36.5316L36.4403 49.8963L36.402 50.1761L35.9984 53.0672C36.7393 53.1251 37.2181 53.3321 37.526 53.5876C38.1992 54.1435 38.0607 54.9325 38.0607 54.9325L40.3161 73.3316L43.0693 95.782Z" fill="#3F3D56"/>
<path d="M17.8793 71.1604C17.8793 71.1604 17.2283 79.2916 18.8059 79.5161C20.3836 79.7407 19.9417 71.1604 19.9417 71.1604H17.8793Z" fill="#FFB8B8"/>
<path d="M22.7405 34.6008C22.7405 34.6008 20.2362 34.4143 19.7943 37.9583C19.3523 41.5023 18.9104 55.1188 18.9104 55.1188L16.4061 72.0928L21.562 72.839L24.9501 47.0982L22.7405 34.6008Z" fill="#3F3D56"/>
<path d="M44.1007 71.5332C44.1007 71.5332 45.1318 78.9943 43.5114 79.1808C41.891 79.3674 41.3018 71.9063 41.3018 71.9063L44.1007 71.5332Z" fill="#FFB8B8"/>
<path d="M31.9146 13.9111C31.5112 13.8834 31.1066 13.918 30.7098 14.0141C30.2734 14.16 29.8544 14.379 29.4637 14.6652C27.6388 15.8922 25.8346 17.4911 24.9781 19.872C24.2748 21.827 24.2991 24.076 24.5288 26.2044C24.6027 26.8891 24.6961 27.5894 24.5819 28.2652C24.347 29.6561 23.3103 30.5906 22.8395 31.882C22.3565 33.2068 22.5248 34.793 23.0078 36.1178C23.1456 36.4959 23.3122 36.9023 23.2353 37.3072C23.1854 37.5138 23.1019 37.705 22.9902 37.8683C22.6103 38.4939 22.1721 39.0659 21.8453 39.7379C21.5185 40.4098 21.3077 41.2198 21.4447 41.9897C21.5862 42.7848 22.0661 43.402 22.5252 43.9733C22.9561 44.5094 23.463 45.0842 24.0662 45.0429C24.4291 45.018 24.7553 44.7689 25.0644 44.5269C25.9911 43.8015 27.0113 42.9016 27.1568 41.5345C27.4406 42.7577 28.5827 43.2903 29.5872 43.3766C30.4405 43.4499 31.3335 43.318 32.0644 42.7557C32.7954 42.1935 33.3273 41.135 33.2338 40.0586C33.1609 39.2183 32.7364 38.3447 33.0355 37.5889C33.2625 37.0152 33.8061 36.7981 34.2328 36.4519C34.6565 36.0933 34.9836 35.5794 35.1702 34.979C35.3568 34.3785 35.3941 33.7202 35.277 33.0922C35.0119 31.7836 34.0718 30.6447 34.2653 29.3161C34.3795 28.5324 34.8724 27.9237 35.0798 27.1712C35.3271 26.2734 35.1403 25.2727 34.8322 24.4056C34.5241 23.5384 34.098 22.7404 33.8353 21.8496C33.7121 21.4981 33.6696 21.1099 33.7124 20.7292C33.8449 19.9262 34.5579 19.5049 35.2016 19.412C35.8453 19.3191 36.5202 19.4242 37.1233 19.1245C37.6823 18.8468 38.3708 17.9596 38.2694 17.1238C38.1738 16.3358 37.3011 15.7373 36.8158 15.3738C35.3533 14.2785 33.5876 13.958 31.9146 13.9111Z" fill="#2F2E41"/>
<path d="M26.1432 52.664L26.2758 50.6421C26.2758 50.6421 26.1535 50.4761 25.9429 50.1758H36.4019L35.9983 53.0669C36.7393 53.1248 35.7641 52.7181 36.0719 52.9737C33.4808 52.6939 28.8243 52.6771 26.1432 52.664Z" fill="#2F2E41"/>
<path opacity="0.1" d="M40.3162 73.3315L38.2082 73.5852L35.9985 53.0671C36.7395 53.125 37.2183 53.332 37.5261 53.5876C38.1994 54.1434 38.0609 54.9324 38.0609 54.9324L40.3162 73.3315Z" fill="black"/>
<path d="M35.9983 33.1086L39.5338 33.4817L45.4262 72.839L39.2392 73.5851L34.8198 42.9946L35.9983 33.1086Z" fill="#3F3D56"/>
<path opacity="0.1" d="M24.2872 54.6526L21.2673 72.839L23.8457 54.6526H24.2872Z" fill="black"/>
<path d="M40.4178 113.129L36.5878 113.875L37.0297 119.844C37.0297 119.844 35.7039 120.777 36.5878 123.761C37.4716 126.745 37.4716 127.492 37.4716 127.492L40.5059 127.12C41.6818 126.976 44.508 125.634 44.9108 124.227C45.0779 123.644 43.2945 123.523 42.9221 123.388C41.891 123.015 40.4178 113.129 40.4178 113.129Z" fill="#2F2E41"/>
<path d="M34.8198 24.1237C35.0312 23.9691 35.0377 23.4823 34.8343 23.0362C34.6309 22.5901 34.2947 22.3538 34.0833 22.5083C33.8719 22.6628 33.8654 23.1497 34.0688 23.5958C34.2722 24.0419 34.6085 24.2782 34.8198 24.1237Z" fill="#FFB8B8"/>
<path d="M120.039 46.4454H53.16V0H120.039V46.4454ZM53.4547 46.0723H119.744V0.373055H53.4547V46.0723Z" fill="#3F3D56"/>
</g>
<defs>
<clipPath id="clip0">
<rect width="166" height="132.994" fill="white" transform="translate(0.00012207)"/>
</clipPath>
</defs>
</svg>
